<svg xmlns="http://www.w3.org/2000/svg" xmlns:xlink="http://www.w3.org/1999/xlink" width="500" zoomAndPan="magnify" viewBox="0 0 375 374.999991" height="500" preserveAspectRatio="xMidYMid meet" version="1.0"><defs><g/><clipPath id="7b257656b7"><path d="M 37.5 131.042969 L 150.414062 131.042969 L 150.414062 243.957031 L 37.5 243.957031 Z M 37.5 131.042969 " clip-rule="nonzero"/></clipPath><clipPath id="ab59766730"><path d="M 54.082031 162.964844 L 133.820312 162.964844 L 133.820312 212.03125 L 54.082031 212.03125 Z M 54.082031 162.964844 " clip-rule="nonzero"/></clipPath><clipPath id="0452cb1502"><path d="M 71.46875 194 L 101 194 L 101 200 L 71.46875 200 Z M 71.46875 194 " clip-rule="nonzero"/></clipPath><clipPath id="a16a79ec68"><path d="M 71.46875 197 L 77 197 L 77 205 L 71.46875 205 Z M 71.46875 197 " clip-rule="nonzero"/></clipPath><clipPath id="f2ffff043b"><path d="M 97 187.5 L 116.351562 187.5 L 116.351562 205.847656 L 97 205.847656 Z M 97 187.5 " clip-rule="nonzero"/></clipPath></defs><g fill="#e3e7f8" fill-opacity="1"><g transform="translate(166.30949, 199.524961)"><g><path d="M 14.0625 -12.3125 L 9.40625 -7.515625 L 9.40625 0 L 3.953125 0 L 3.953125 -29.40625 L 9.40625 -29.40625 L 9.40625 -14.328125 L 23.9375 -29.40625 L 30.078125 -29.40625 L 17.71875 -16.25 L 30.828125 0 L 24.4375 0 Z M 14.0625 -12.3125 "/></g></g></g><g fill="#e3e7f8" fill-opacity="1"><g transform="translate(195.03748, 199.524961)"><g><path d="M 24.53125 -11.09375 C 24.53125 -10.726562 24.5 -10.207031 24.4375 -9.53125 L 6.84375 -9.53125 C 7.15625 -7.882812 7.960938 -6.578125 9.265625 -5.609375 C 10.566406 -4.640625 12.179688 -4.15625 14.109375 -4.15625 C 16.578125 -4.15625 18.609375 -4.96875 20.203125 -6.59375 L 23.015625 -3.359375 C 22.003906 -2.148438 20.726562 -1.238281 19.1875 -0.625 C 17.65625 -0.0078125 15.921875 0.296875 13.984375 0.296875 C 11.523438 0.296875 9.351562 -0.191406 7.46875 -1.171875 C 5.59375 -2.148438 4.144531 -3.515625 3.125 -5.265625 C 2.101562 -7.015625 1.59375 -9 1.59375 -11.21875 C 1.59375 -13.394531 2.085938 -15.359375 3.078125 -17.109375 C 4.078125 -18.859375 5.457031 -20.222656 7.21875 -21.203125 C 8.988281 -22.191406 10.976562 -22.6875 13.1875 -22.6875 C 15.375 -22.6875 17.328125 -22.203125 19.046875 -21.234375 C 20.765625 -20.265625 22.109375 -18.90625 23.078125 -17.15625 C 24.046875 -15.40625 24.53125 -13.382812 24.53125 -11.09375 Z M 13.1875 -18.484375 C 11.507812 -18.484375 10.085938 -17.984375 8.921875 -16.984375 C 7.765625 -15.992188 7.054688 -14.671875 6.796875 -13.015625 L 19.53125 -13.015625 C 19.300781 -14.640625 18.613281 -15.957031 17.46875 -16.96875 C 16.320312 -17.976562 14.894531 -18.484375 13.1875 -18.484375 Z M 13.1875 -18.484375 "/></g></g></g><g fill="#e3e7f8" fill-opacity="1"><g transform="translate(219.271478, 199.524961)"><g><path d="M 24.4375 -22.421875 L 13.9375 1.8125 C 12.957031 4.238281 11.769531 5.945312 10.375 6.9375 C 8.976562 7.9375 7.285156 8.4375 5.296875 8.4375 C 4.171875 8.4375 3.0625 8.253906 1.96875 7.890625 C 0.882812 7.523438 -0.0078125 7.023438 -0.71875 6.390625 L 1.390625 2.515625 C 1.890625 2.992188 2.484375 3.375 3.171875 3.65625 C 3.859375 3.9375 4.550781 4.078125 5.25 4.078125 C 6.175781 4.078125 6.9375 3.835938 7.53125 3.359375 C 8.132812 2.878906 8.691406 2.082031 9.203125 0.96875 L 9.578125 0.078125 L -0.203125 -22.421875 L 5.25 -22.421875 L 12.3125 -5.84375 L 19.40625 -22.421875 Z M 24.4375 -22.421875 "/></g></g></g><g fill="#e3e7f8" fill-opacity="1"><g transform="translate(241.657477, 199.524961)"><g><path d="M 23.140625 -4.625 L 23.140625 0 L 1.46875 0 L 1.46875 -3.65625 L 13.140625 -14.734375 C 14.460938 -15.992188 15.351562 -17.09375 15.8125 -18.03125 C 16.269531 -18.976562 16.5 -19.910156 16.5 -20.828125 C 16.5 -22.203125 16.035156 -23.253906 15.109375 -23.984375 C 14.191406 -24.710938 12.835938 -25.078125 11.046875 -25.078125 C 8.046875 -25.078125 5.75 -24.054688 4.15625 -22.015625 L 0.34375 -24.953125 C 1.488281 -26.492188 3.03125 -27.6875 4.96875 -28.53125 C 6.914062 -29.382812 9.097656 -29.8125 11.515625 -29.8125 C 14.703125 -29.8125 17.25 -29.054688 19.15625 -27.546875 C 21.0625 -26.035156 22.015625 -23.976562 22.015625 -21.375 C 22.015625 -19.78125 21.675781 -18.28125 21 -16.875 C 20.320312 -15.476562 19.035156 -13.882812 17.140625 -12.09375 L 9.28125 -4.625 Z M 23.140625 -4.625 "/></g></g></g><g fill="#e3e7f8" fill-opacity="1"><g transform="translate(264.211469, 199.524961)"><g><path d="M 30.078125 -29.40625 L 30.078125 0 L 24.609375 0 L 24.609375 -12.59375 L 9.40625 -12.59375 L 9.40625 0 L 3.953125 0 L 3.953125 -29.40625 L 9.40625 -29.40625 L 9.40625 -17.265625 L 24.609375 -17.265625 L 24.609375 -29.40625 Z M 30.078125 -29.40625 "/></g></g></g><g fill="#e3e7f8" fill-opacity="1"><g transform="translate(296.341464, 199.524961)"><g><path d="M 13.53125 0.296875 C 11.257812 0.296875 9.210938 -0.191406 7.390625 -1.171875 C 5.566406 -2.148438 4.144531 -3.515625 3.125 -5.265625 C 2.101562 -7.015625 1.59375 -9 1.59375 -11.21875 C 1.59375 -13.425781 2.101562 -15.394531 3.125 -17.125 C 4.144531 -18.863281 5.566406 -20.222656 7.390625 -21.203125 C 9.210938 -22.191406 11.257812 -22.6875 13.53125 -22.6875 C 15.820312 -22.6875 17.875 -22.191406 19.6875 -21.203125 C 21.507812 -20.222656 22.929688 -18.863281 23.953125 -17.125 C 24.984375 -15.394531 25.5 -13.425781 25.5 -11.21875 C 25.5 -9 24.984375 -7.015625 23.953125 -5.265625 C 22.929688 -3.515625 21.507812 -2.148438 19.6875 -1.171875 C 17.875 -0.191406 15.820312 0.296875 13.53125 0.296875 Z M 13.53125 -4.203125 C 15.457031 -4.203125 17.050781 -4.84375 18.3125 -6.125 C 19.570312 -7.414062 20.203125 -9.113281 20.203125 -11.21875 C 20.203125 -13.3125 19.570312 -15.003906 18.3125 -16.296875 C 17.050781 -17.585938 15.457031 -18.234375 13.53125 -18.234375 C 11.59375 -18.234375 10 -17.585938 8.75 -16.296875 C 7.507812 -15.003906 6.890625 -13.3125 6.890625 -11.21875 C 6.890625 -9.113281 7.507812 -7.414062 8.75 -6.125 C 10 -4.84375 11.59375 -4.203125 13.53125 -4.203125 Z M 13.53125 -4.203125 "/></g></g></g><g fill="#e3e7f8" fill-opacity="1"><g transform="translate(321.541455, 199.524961)"><g><path d="M 10.375 0.296875 C 8.550781 0.296875 6.769531 0.0546875 5.03125 -0.421875 C 3.300781 -0.898438 1.914062 -1.5 0.875 -2.21875 L 2.890625 -6.21875 C 3.898438 -5.539062 5.113281 -5 6.53125 -4.59375 C 7.945312 -4.1875 9.335938 -3.984375 10.703125 -3.984375 C 13.835938 -3.984375 15.40625 -4.8125 15.40625 -6.46875 C 15.40625 -7.25 15.003906 -7.789062 14.203125 -8.09375 C 13.410156 -8.40625 12.132812 -8.703125 10.375 -8.984375 C 8.53125 -9.265625 7.023438 -9.585938 5.859375 -9.953125 C 4.691406 -10.316406 3.679688 -10.953125 2.828125 -11.859375 C 1.972656 -12.773438 1.546875 -14.046875 1.546875 -15.671875 C 1.546875 -17.796875 2.4375 -19.492188 4.21875 -20.765625 C 6 -22.046875 8.398438 -22.6875 11.421875 -22.6875 C 12.960938 -22.6875 14.503906 -22.507812 16.046875 -22.15625 C 17.585938 -21.800781 18.847656 -21.332031 19.828125 -20.75 L 17.8125 -16.765625 C 15.90625 -17.878906 13.757812 -18.4375 11.375 -18.4375 C 9.84375 -18.4375 8.675781 -18.203125 7.875 -17.734375 C 7.070312 -17.273438 6.671875 -16.671875 6.671875 -15.921875 C 6.671875 -15.078125 7.097656 -14.476562 7.953125 -14.125 C 8.804688 -13.78125 10.128906 -13.453125 11.921875 -13.140625 C 13.710938 -12.859375 15.179688 -12.535156 16.328125 -12.171875 C 17.484375 -11.816406 18.472656 -11.203125 19.296875 -10.328125 C 20.117188 -9.460938 20.53125 -8.234375 20.53125 -6.640625 C 20.53125 -4.535156 19.617188 -2.851562 17.796875 -1.59375 C 15.984375 -0.332031 13.507812 0.296875 10.375 0.296875 Z M 10.375 0.296875 "/></g></g></g><g fill="#e3e7f8" fill-opacity="1"><g transform="translate(341.281448, 199.524961)"><g><path d="M 16.921875 -1.21875 C 16.304688 -0.71875 15.554688 -0.335938 14.671875 -0.078125 C 13.796875 0.171875 12.867188 0.296875 11.890625 0.296875 C 9.421875 0.296875 7.515625 -0.34375 6.171875 -1.625 C 4.828125 -2.914062 4.15625 -4.796875 4.15625 -7.265625 L 4.15625 -18.0625 L 0.46875 -18.0625 L 0.46875 -22.265625 L 4.15625 -22.265625 L 4.15625 -27.390625 L 9.40625 -27.390625 L 9.40625 -22.265625 L 15.40625 -22.265625 L 15.40625 -18.0625 L 9.40625 -18.0625 L 9.40625 -7.390625 C 9.40625 -6.296875 9.671875 -5.460938 10.203125 -4.890625 C 10.734375 -4.316406 11.503906 -4.03125 12.515625 -4.03125 C 13.691406 -4.03125 14.671875 -4.335938 15.453125 -4.953125 Z M 16.921875 -1.21875 "/></g></g></g><g clip-path="url(#7b257656b7)"><path fill="#e3e7f8" d="M 65.460938 131.042969 L 122.453125 131.042969 C 123.367188 131.042969 124.28125 131.085938 125.191406 131.175781 C 126.105469 131.265625 127.007812 131.402344 127.90625 131.578125 C 128.804688 131.757812 129.691406 131.980469 130.570312 132.246094 C 131.445312 132.511719 132.308594 132.820312 133.152344 133.171875 C 134 133.523438 134.824219 133.914062 135.632812 134.34375 C 136.441406 134.777344 137.226562 135.246094 137.988281 135.753906 C 138.75 136.265625 139.484375 136.808594 140.191406 137.390625 C 140.898438 137.972656 141.578125 138.585938 142.222656 139.234375 C 142.871094 139.878906 143.488281 140.558594 144.066406 141.265625 C 144.648438 141.972656 145.191406 142.707031 145.703125 143.46875 C 146.210938 144.230469 146.679688 145.015625 147.113281 145.824219 C 147.542969 146.632812 147.9375 147.457031 148.285156 148.304688 C 148.636719 149.152344 148.945312 150.011719 149.210938 150.886719 C 149.476562 151.765625 149.699219 152.652344 149.878906 153.550781 C 150.054688 154.449219 150.191406 155.351562 150.28125 156.265625 C 150.371094 157.175781 150.414062 158.089844 150.414062 159.003906 L 150.414062 215.996094 C 150.414062 216.910156 150.371094 217.824219 150.28125 218.734375 C 150.191406 219.648438 150.054688 220.550781 149.878906 221.449219 C 149.699219 222.347656 149.476562 223.234375 149.210938 224.113281 C 148.945312 224.988281 148.636719 225.847656 148.285156 226.695312 C 147.9375 227.542969 147.542969 228.367188 147.113281 229.175781 C 146.679688 229.984375 146.210938 230.769531 145.703125 231.53125 C 145.191406 232.292969 144.648438 233.027344 144.066406 233.734375 C 143.488281 234.441406 142.871094 235.121094 142.222656 235.765625 C 141.578125 236.414062 140.898438 237.027344 140.191406 237.609375 C 139.484375 238.191406 138.75 238.734375 137.988281 239.246094 C 137.226562 239.753906 136.441406 240.222656 135.632812 240.65625 C 134.824219 241.085938 134 241.476562 133.152344 241.828125 C 132.308594 242.179688 131.445312 242.488281 130.570312 242.753906 C 129.691406 243.019531 128.804688 243.242188 127.90625 243.421875 C 127.007812 243.597656 126.105469 243.734375 125.191406 243.824219 C 124.28125 243.914062 123.367188 243.957031 122.453125 243.957031 L 65.460938 243.957031 C 64.546875 243.957031 63.632812 243.914062 62.722656 243.824219 C 61.808594 243.734375 60.90625 243.597656 60.007812 243.421875 C 59.109375 243.242188 58.222656 243.019531 57.34375 242.753906 C 56.46875 242.488281 55.609375 242.179688 54.761719 241.828125 C 53.914062 241.476562 53.089844 241.085938 52.28125 240.65625 C 51.472656 240.222656 50.6875 239.753906 49.925781 239.246094 C 49.164062 238.734375 48.429688 238.191406 47.722656 237.609375 C 47.015625 237.027344 46.335938 236.414062 45.691406 235.765625 C 45.042969 235.121094 44.429688 234.441406 43.847656 233.734375 C 43.265625 233.027344 42.722656 232.292969 42.210938 231.53125 C 41.703125 230.769531 41.234375 229.984375 40.800781 229.175781 C 40.371094 228.367188 39.980469 227.542969 39.628906 226.695312 C 39.277344 225.847656 38.96875 224.988281 38.703125 224.113281 C 38.4375 223.234375 38.214844 222.347656 38.039062 221.449219 C 37.859375 220.550781 37.722656 219.648438 37.632812 218.734375 C 37.542969 217.824219 37.5 216.910156 37.5 215.996094 L 37.5 159.003906 C 37.5 158.089844 37.542969 157.175781 37.632812 156.265625 C 37.722656 155.351562 37.859375 154.449219 38.039062 153.550781 C 38.214844 152.652344 38.4375 151.765625 38.703125 150.886719 C 38.96875 150.011719 39.277344 149.152344 39.628906 148.304688 C 39.980469 147.457031 40.371094 146.632812 40.800781 145.824219 C 41.234375 145.015625 41.703125 144.230469 42.210938 143.46875 C 42.722656 142.707031 43.265625 141.972656 43.847656 141.265625 C 44.429688 140.558594 45.042969 139.878906 45.691406 139.234375 C 46.335938 138.585938 47.015625 137.972656 47.722656 137.390625 C 48.429688 136.808594 49.164062 136.265625 49.925781 135.753906 C 50.6875 135.246094 51.472656 134.777344 52.28125 134.34375 C 53.089844 133.914062 53.914062 133.523438 54.761719 133.171875 C 55.609375 132.820312 56.46875 132.511719 57.34375 132.246094 C 58.222656 131.980469 59.109375 131.757812 60.007812 131.578125 C 60.90625 131.402344 61.808594 131.265625 62.722656 131.175781 C 63.632812 131.085938 64.546875 131.042969 65.460938 131.042969 Z M 65.460938 131.042969 " fill-opacity="1" fill-rule="nonzero"/></g><g clip-path="url(#ab59766730)"><path fill="#669fff" d="M 133.820312 199.761719 C 133.820312 206.539062 128.332031 212.03125 121.554688 212.03125 L 72.488281 212.03125 C 62.328125 212.03125 54.082031 203.796875 54.082031 193.636719 C 54.082031 183.464844 62.328125 175.230469 72.488281 175.230469 C 73.546875 175.230469 74.597656 175.324219 75.617188 175.496094 C 79.820312 168.015625 87.832031 162.964844 97.023438 162.964844 C 110.574219 162.964844 121.554688 173.941406 121.554688 187.496094 C 128.332031 187.496094 133.820312 192.988281 133.820312 199.761719 " fill-opacity="1" fill-rule="nonzero"/></g><g clip-path="url(#0452cb1502)"><path fill="#e3e7f8" d="M 71.515625 194.386719 L 100.554688 194.386719 L 100.554688 199.667969 L 71.515625 199.667969 Z M 71.515625 194.386719 " fill-opacity="1" fill-rule="evenodd"/></g><g clip-path="url(#a16a79ec68)"><path fill="#e3e7f8" d="M 71.515625 197.027344 L 76.792969 197.027344 L 76.792969 204.398438 L 71.515625 204.398438 Z M 71.515625 197.027344 " fill-opacity="1" fill-rule="evenodd"/></g><path fill="#e3e7f8" d="M 79.433594 197.027344 L 84.714844 197.027344 L 84.714844 204.398438 L 79.433594 204.398438 Z M 79.433594 197.027344 " fill-opacity="1" fill-rule="evenodd"/><g clip-path="url(#f2ffff043b)"><path fill="#e3e7f8" d="M 107.15625 192.757812 C 104.96875 192.757812 103.195312 194.53125 103.195312 196.71875 C 103.195312 198.90625 104.96875 200.679688 107.15625 200.679688 C 109.34375 200.679688 111.117188 198.90625 111.117188 196.71875 C 111.117188 194.53125 109.34375 192.757812 107.15625 192.757812 Z M 97.914062 196.71875 C 97.914062 191.613281 102.050781 187.476562 107.15625 187.476562 C 112.257812 187.476562 116.394531 191.613281 116.394531 196.71875 C 116.394531 201.820312 112.257812 205.957031 107.15625 205.957031 C 102.050781 205.957031 97.914062 201.820312 97.914062 196.71875 Z M 97.914062 196.71875 " fill-opacity="1" fill-rule="evenodd"/></g></svg>