<svg xmlns="http://www.w3.org/2000/svg" xmlns:xlink="http://www.w3.org/1999/xlink" width="500" zoomAndPan="magnify" viewBox="0 0 375 374.999991" height="500" preserveAspectRatio="xMidYMid meet" version="1.0"><defs><clipPath id="959e7d214b"><path d="M 0 0 L 374.054688 0 L 374.054688 374.054688 L 0 374.054688 Z M 0 0 " clip-rule="nonzero"/></clipPath><clipPath id="eed339dcf5"><path d="M 55.066406 106.015625 L 319.238281 106.015625 L 319.238281 268.105469 L 55.066406 268.105469 Z M 55.066406 106.015625 " clip-rule="nonzero"/></clipPath><clipPath id="8c25eaa9f9"><path d="M 112.5 210 L 210 210 L 210 229 L 112.5 229 Z M 112.5 210 " clip-rule="nonzero"/></clipPath><clipPath id="bbc312f64a"><path d="M 112.5 219 L 131 219 L 131 244 L 112.5 244 Z M 112.5 219 " clip-rule="nonzero"/></clipPath><clipPath id="9278e2436c"><path d="M 200 187.5 L 262.5 187.5 L 262.5 249 L 200 249 Z M 200 187.5 " clip-rule="nonzero"/></clipPath></defs><g clip-path="url(#959e7d214b)"><path fill="#e3e7f8" d="M 92.863281 0 L 282.125 0 C 283.648438 0 285.164062 0.0390625 286.683594 0.113281 C 288.203125 0.1875 289.714844 0.296875 291.230469 0.445312 C 292.742188 0.597656 294.25 0.78125 295.753906 1.003906 C 297.257812 1.226562 298.753906 1.488281 300.242188 1.785156 C 301.734375 2.082031 303.214844 2.414062 304.691406 2.78125 C 306.164062 3.152344 307.628906 3.558594 309.082031 4 C 310.539062 4.441406 311.980469 4.917969 313.410156 5.429688 C 314.84375 5.941406 316.261719 6.488281 317.664062 7.070312 C 319.070312 7.652344 320.457031 8.265625 321.832031 8.914062 C 323.207031 9.566406 324.5625 10.25 325.902344 10.964844 C 327.242188 11.683594 328.566406 12.429688 329.867188 13.210938 C 331.171875 13.992188 332.457031 14.804688 333.71875 15.652344 C 334.984375 16.496094 336.226562 17.371094 337.445312 18.273438 C 338.667969 19.179688 339.863281 20.113281 341.039062 21.078125 C 342.214844 22.042969 343.363281 23.035156 344.492188 24.054688 C 345.617188 25.078125 346.71875 26.125 347.792969 27.199219 C 348.867188 28.273438 349.914062 29.375 350.933594 30.5 C 351.957031 31.625 352.949219 32.777344 353.910156 33.953125 C 354.875 35.125 355.8125 36.324219 356.714844 37.546875 C 357.621094 38.765625 358.496094 40.007812 359.339844 41.273438 C 360.183594 42.535156 360.996094 43.820312 361.777344 45.121094 C 362.558594 46.425781 363.308594 47.746094 364.027344 49.089844 C 364.742188 50.429688 365.425781 51.785156 366.074219 53.160156 C 366.726562 54.535156 367.339844 55.921875 367.921875 57.328125 C 368.503906 58.730469 369.050781 60.148438 369.5625 61.578125 C 370.074219 63.011719 370.550781 64.453125 370.992188 65.90625 C 371.433594 67.363281 371.839844 68.824219 372.207031 70.300781 C 372.578125 71.773438 372.910156 73.257812 373.207031 74.746094 C 373.503906 76.238281 373.761719 77.734375 373.984375 79.238281 C 374.210938 80.742188 374.394531 82.25 374.542969 83.761719 C 374.691406 85.273438 374.804688 86.789062 374.878906 88.308594 C 374.953125 89.824219 374.992188 91.34375 374.992188 92.863281 L 374.992188 282.125 C 374.992188 283.648438 374.953125 285.164062 374.878906 286.683594 C 374.804688 288.203125 374.691406 289.714844 374.542969 291.230469 C 374.394531 292.742188 374.210938 294.25 373.984375 295.753906 C 373.761719 297.257812 373.503906 298.753906 373.207031 300.242188 C 372.910156 301.734375 372.578125 303.214844 372.207031 304.691406 C 371.839844 306.164062 371.433594 307.628906 370.992188 309.082031 C 370.550781 310.539062 370.074219 311.980469 369.5625 313.410156 C 369.050781 314.84375 368.503906 316.261719 367.921875 317.664062 C 367.339844 319.070312 366.726562 320.457031 366.074219 321.832031 C 365.425781 323.207031 364.742188 324.5625 364.027344 325.902344 C 363.308594 327.242188 362.558594 328.566406 361.777344 329.867188 C 360.996094 331.171875 360.183594 332.457031 359.339844 333.71875 C 358.496094 334.984375 357.621094 336.226562 356.714844 337.445312 C 355.8125 338.667969 354.875 339.863281 353.910156 341.039062 C 352.949219 342.214844 351.957031 343.363281 350.933594 344.492188 C 349.914062 345.617188 348.867188 346.71875 347.792969 347.792969 C 346.71875 348.867188 345.617188 349.914062 344.492188 350.933594 C 343.363281 351.957031 342.214844 352.949219 341.039062 353.910156 C 339.863281 354.875 338.667969 355.8125 337.445312 356.714844 C 336.226562 357.621094 334.984375 358.496094 333.71875 359.339844 C 332.457031 360.183594 331.171875 360.996094 329.867188 361.777344 C 328.566406 362.558594 327.242188 363.308594 325.902344 364.027344 C 324.5625 364.742188 323.207031 365.425781 321.832031 366.074219 C 320.457031 366.726562 319.070312 367.339844 317.664062 367.921875 C 316.261719 368.503906 314.84375 369.050781 313.410156 369.5625 C 311.980469 370.074219 310.539062 370.550781 309.082031 370.992188 C 307.628906 371.433594 306.164062 371.839844 304.691406 372.207031 C 303.214844 372.578125 301.734375 372.910156 300.242188 373.207031 C 298.753906 373.503906 297.257812 373.761719 295.753906 373.984375 C 294.25 374.210938 292.742188 374.394531 291.230469 374.542969 C 289.714844 374.691406 288.203125 374.804688 286.683594 374.878906 C 285.164062 374.953125 283.648438 374.992188 282.125 374.992188 L 92.863281 374.992188 C 91.34375 374.992188 89.824219 374.953125 88.308594 374.878906 C 86.789062 374.804688 85.273438 374.691406 83.761719 374.542969 C 82.25 374.394531 80.742188 374.210938 79.238281 373.984375 C 77.734375 373.761719 76.238281 373.503906 74.746094 373.207031 C 73.257812 372.910156 71.773438 372.578125 70.300781 372.207031 C 68.824219 371.839844 67.363281 371.433594 65.90625 370.992188 C 64.453125 370.550781 63.011719 370.074219 61.578125 369.5625 C 60.148438 369.050781 58.730469 368.503906 57.328125 367.921875 C 55.921875 367.339844 54.535156 366.726562 53.160156 366.074219 C 51.785156 365.425781 50.429688 364.742188 49.089844 364.027344 C 47.746094 363.308594 46.425781 362.558594 45.121094 361.777344 C 43.820312 360.996094 42.535156 360.183594 41.273438 359.339844 C 40.007812 358.496094 38.765625 357.621094 37.546875 356.714844 C 36.324219 355.8125 35.125 354.875 33.953125 353.910156 C 32.777344 352.949219 31.625 351.957031 30.5 350.933594 C 29.375 349.914062 28.273438 348.867188 27.199219 347.792969 C 26.125 346.71875 25.078125 345.617188 24.054688 344.492188 C 23.035156 343.363281 22.042969 342.214844 21.078125 341.039062 C 20.113281 339.863281 19.179688 338.667969 18.273438 337.445312 C 17.371094 336.226562 16.496094 334.984375 15.652344 333.71875 C 14.804688 332.457031 13.992188 331.171875 13.210938 329.867188 C 12.429688 328.566406 11.683594 327.242188 10.964844 325.902344 C 10.25 324.5625 9.566406 323.207031 8.914062 321.832031 C 8.265625 320.457031 7.652344 319.070312 7.070312 317.664062 C 6.488281 316.261719 5.941406 314.84375 5.429688 313.410156 C 4.917969 311.980469 4.441406 310.539062 4 309.082031 C 3.558594 307.628906 3.152344 306.164062 2.78125 304.691406 C 2.414062 303.214844 2.082031 301.734375 1.785156 300.242188 C 1.488281 298.753906 1.226562 297.257812 1.003906 295.753906 C 0.78125 294.25 0.597656 292.742188 0.445312 291.230469 C 0.296875 289.714844 0.1875 288.203125 0.113281 286.683594 C 0.0390625 285.164062 0 283.648438 0 282.125 L 0 92.863281 C 0 91.34375 0.0390625 89.824219 0.113281 88.308594 C 0.1875 86.789062 0.296875 85.273438 0.445312 83.761719 C 0.597656 82.25 0.78125 80.742188 1.003906 79.238281 C 1.226562 77.734375 1.488281 76.238281 1.785156 74.746094 C 2.082031 73.257812 2.414062 71.773438 2.78125 70.300781 C 3.152344 68.824219 3.558594 67.363281 4 65.90625 C 4.441406 64.453125 4.917969 63.011719 5.429688 61.578125 C 5.941406 60.148438 6.488281 58.730469 7.070312 57.328125 C 7.652344 55.921875 8.265625 54.535156 8.914062 53.160156 C 9.566406 51.785156 10.25 50.429688 10.964844 49.089844 C 11.683594 47.746094 12.429688 46.425781 13.210938 45.121094 C 13.992188 43.820312 14.804688 42.535156 15.652344 41.273438 C 16.496094 40.007812 17.371094 38.765625 18.273438 37.546875 C 19.179688 36.324219 20.113281 35.125 21.078125 33.953125 C 22.042969 32.777344 23.035156 31.625 24.054688 30.5 C 25.078125 29.375 26.125 28.273438 27.199219 27.199219 C 28.273438 26.125 29.375 25.078125 30.5 24.054688 C 31.625 23.035156 32.777344 22.042969 33.953125 21.078125 C 35.125 20.113281 36.324219 19.179688 37.546875 18.273438 C 38.765625 17.371094 40.007812 16.496094 41.273438 15.652344 C 42.535156 14.804688 43.820312 13.992188 45.121094 13.210938 C 46.425781 12.429688 47.746094 11.683594 49.089844 10.964844 C 50.429688 10.25 51.785156 9.566406 53.160156 8.914062 C 54.535156 8.265625 55.921875 7.652344 57.328125 7.070312 C 58.730469 6.488281 60.148438 5.941406 61.578125 5.429688 C 63.011719 4.917969 64.453125 4.441406 65.90625 4 C 67.363281 3.558594 68.824219 3.152344 70.300781 2.78125 C 71.773438 2.414062 73.257812 2.082031 74.746094 1.785156 C 76.238281 1.488281 77.734375 1.226562 79.238281 1.003906 C 80.742188 0.78125 82.25 0.597656 83.761719 0.445312 C 85.273438 0.296875 86.789062 0.1875 88.308594 0.113281 C 89.824219 0.0390625 91.34375 0 92.863281 0 Z M 92.863281 0 " fill-opacity="1" fill-rule="nonzero"/></g><g clip-path="url(#eed339dcf5)"><path fill="#669fff" d="M 319.867188 228.214844 C 319.867188 250.71875 301.632812 268.949219 279.132812 268.949219 L 116.191406 268.949219 C 82.457031 268.949219 55.066406 241.605469 55.066406 207.871094 C 55.066406 174.09375 82.457031 146.746094 116.191406 146.746094 C 119.714844 146.746094 123.191406 147.054688 126.582031 147.628906 C 140.542969 122.789062 167.140625 106.011719 197.660156 106.011719 C 242.667969 106.011719 279.132812 142.472656 279.132812 187.484375 C 301.632812 187.484375 319.867188 205.714844 319.867188 228.214844 " fill-opacity="1" fill-rule="nonzero"/></g><g clip-path="url(#8c25eaa9f9)"><path fill="#e3e7f8" d="M 112.664062 210.46875 L 209.511719 210.46875 L 209.511719 228.078125 L 112.664062 228.078125 Z M 112.664062 210.46875 " fill-opacity="1" fill-rule="evenodd"/></g><g clip-path="url(#bbc312f64a)"><path fill="#e3e7f8" d="M 112.664062 219.273438 L 130.273438 219.273438 L 130.273438 243.847656 L 112.664062 243.847656 Z M 112.664062 219.273438 " fill-opacity="1" fill-rule="evenodd"/></g><path fill="#e3e7f8" d="M 139.078125 219.273438 L 156.683594 219.273438 L 156.683594 243.847656 L 139.078125 243.847656 Z M 139.078125 219.273438 " fill-opacity="1" fill-rule="evenodd"/><g clip-path="url(#9278e2436c)"><path fill="#e3e7f8" d="M 231.519531 205.035156 C 224.226562 205.035156 218.3125 210.945312 218.3125 218.238281 C 218.3125 225.53125 224.226562 231.445312 231.519531 231.445312 C 238.8125 231.445312 244.726562 225.53125 244.726562 218.238281 C 244.726562 210.945312 238.8125 205.035156 231.519531 205.035156 Z M 200.707031 218.238281 C 200.707031 201.222656 214.503906 187.425781 231.519531 187.425781 C 248.539062 187.425781 262.335938 201.222656 262.335938 218.238281 C 262.335938 235.257812 248.539062 249.054688 231.519531 249.054688 C 214.503906 249.054688 200.707031 235.257812 200.707031 218.238281 Z M 200.707031 218.238281 " fill-opacity="1" fill-rule="evenodd"/></g></svg>