<svg xmlns="http://www.w3.org/2000/svg" xmlns:xlink="http://www.w3.org/1999/xlink" width="500" zoomAndPan="magnify" viewBox="0 0 375 374.999991" height="500" preserveAspectRatio="xMidYMid meet" version="1.0"><defs><g/><clipPath id="cf366ad966"><path d="M 38.328125 67.078125 L 336.453125 67.078125 L 336.453125 308 L 38.328125 308 Z M 38.328125 67.078125 " clip-rule="nonzero"/></clipPath><clipPath id="dbbffcd0e5"><path d="M 230 141 L 257 141 L 257 164.3125 L 230 164.3125 Z M 230 141 " clip-rule="nonzero"/></clipPath></defs><path fill="#e3e7f8" d="M 92.867188 0 L 282.132812 0 C 283.652344 0 285.171875 0.0390625 286.691406 0.113281 C 288.207031 0.1875 289.722656 0.296875 291.234375 0.445312 C 292.75 0.597656 294.257812 0.78125 295.761719 1.003906 C 297.261719 1.226562 298.761719 1.488281 300.25 1.785156 C 301.742188 2.082031 303.222656 2.414062 304.699219 2.78125 C 306.171875 3.152344 307.636719 3.558594 309.089844 4 C 310.546875 4.441406 311.988281 4.917969 313.417969 5.429688 C 314.851562 5.941406 316.269531 6.488281 317.671875 7.070312 C 319.074219 7.652344 320.464844 8.265625 321.839844 8.917969 C 323.214844 9.566406 324.570312 10.25 325.910156 10.964844 C 327.25 11.683594 328.574219 12.429688 329.875 13.210938 C 331.179688 13.992188 332.464844 14.804688 333.726562 15.652344 C 334.992188 16.496094 336.234375 17.371094 337.453125 18.277344 C 338.675781 19.179688 339.871094 20.117188 341.046875 21.078125 C 342.222656 22.042969 343.371094 23.035156 344.5 24.058594 C 345.625 25.078125 346.726562 26.125 347.800781 27.199219 C 348.875 28.273438 349.921875 29.375 350.941406 30.5 C 351.964844 31.628906 352.957031 32.777344 353.921875 33.953125 C 354.882812 35.128906 355.820312 36.324219 356.722656 37.546875 C 357.628906 38.765625 358.503906 40.007812 359.347656 41.273438 C 360.195312 42.535156 361.007812 43.820312 361.789062 45.125 C 362.570312 46.425781 363.316406 47.75 364.035156 49.089844 C 364.75 50.429688 365.433594 51.785156 366.082031 53.160156 C 366.734375 54.535156 367.347656 55.921875 367.929688 57.328125 C 368.511719 58.730469 369.058594 60.148438 369.570312 61.582031 C 370.082031 63.011719 370.558594 64.453125 371 65.910156 C 371.441406 67.363281 371.847656 68.828125 372.21875 70.300781 C 372.585938 71.777344 372.917969 73.257812 373.214844 74.75 C 373.511719 76.238281 373.773438 77.738281 373.996094 79.238281 C 374.21875 80.742188 374.402344 82.25 374.554688 83.765625 C 374.703125 85.277344 374.8125 86.792969 374.886719 88.308594 C 374.960938 89.828125 375 91.347656 375 92.867188 L 375 282.132812 C 375 283.652344 374.960938 285.171875 374.886719 286.691406 C 374.8125 288.207031 374.703125 289.722656 374.554688 291.234375 C 374.402344 292.75 374.21875 294.257812 373.996094 295.761719 C 373.773438 297.261719 373.511719 298.761719 373.214844 300.25 C 372.917969 301.742188 372.585938 303.222656 372.21875 304.699219 C 371.847656 306.171875 371.441406 307.636719 371 309.089844 C 370.558594 310.546875 370.082031 311.988281 369.570312 313.417969 C 369.058594 314.851562 368.511719 316.269531 367.929688 317.671875 C 367.347656 319.074219 366.734375 320.464844 366.082031 321.839844 C 365.433594 323.214844 364.75 324.570312 364.035156 325.910156 C 363.316406 327.25 362.570312 328.574219 361.789062 329.875 C 361.007812 331.179688 360.195312 332.464844 359.347656 333.726562 C 358.503906 334.992188 357.628906 336.234375 356.722656 337.453125 C 355.820312 338.675781 354.882812 339.871094 353.921875 341.046875 C 352.957031 342.222656 351.964844 343.371094 350.941406 344.5 C 349.921875 345.625 348.875 346.726562 347.800781 347.800781 C 346.726562 348.875 345.625 349.921875 344.5 350.941406 C 343.371094 351.964844 342.222656 352.957031 341.046875 353.921875 C 339.871094 354.882812 338.675781 355.820312 337.453125 356.722656 C 336.234375 357.628906 334.992188 358.503906 333.726562 359.347656 C 332.464844 360.195312 331.179688 361.007812 329.875 361.789062 C 328.574219 362.570312 327.25 363.316406 325.910156 364.035156 C 324.570312 364.75 323.214844 365.433594 321.839844 366.082031 C 320.464844 366.734375 319.074219 367.347656 317.671875 367.929688 C 316.269531 368.511719 314.851562 369.058594 313.417969 369.570312 C 311.988281 370.082031 310.546875 370.558594 309.089844 371 C 307.636719 371.441406 306.171875 371.847656 304.699219 372.21875 C 303.222656 372.585938 301.742188 372.917969 300.25 373.214844 C 298.761719 373.511719 297.261719 373.773438 295.761719 373.996094 C 294.257812 374.21875 292.75 374.402344 291.234375 374.554688 C 289.722656 374.703125 288.207031 374.8125 286.691406 374.886719 C 285.171875 374.960938 283.652344 375 282.132812 375 L 92.867188 375 C 91.347656 375 89.828125 374.960938 88.308594 374.886719 C 86.792969 374.8125 85.277344 374.703125 83.765625 374.554688 C 82.25 374.402344 80.742188 374.21875 79.238281 373.996094 C 77.738281 373.773438 76.238281 373.511719 74.75 373.214844 C 73.257812 372.917969 71.777344 372.585938 70.300781 372.21875 C 68.828125 371.847656 67.363281 371.441406 65.910156 371 C 64.453125 370.558594 63.011719 370.082031 61.582031 369.570312 C 60.148438 369.058594 58.730469 368.511719 57.328125 367.929688 C 55.925781 367.347656 54.535156 366.734375 53.160156 366.082031 C 51.785156 365.433594 50.429688 364.75 49.089844 364.035156 C 47.75 363.316406 46.425781 362.570312 45.125 361.789062 C 43.820312 361.007812 42.535156 360.195312 41.273438 359.347656 C 40.007812 358.503906 38.765625 357.628906 37.546875 356.722656 C 36.324219 355.820312 35.128906 354.882812 33.953125 353.921875 C 32.777344 352.957031 31.628906 351.964844 30.5 350.941406 C 29.375 349.921875 28.273438 348.875 27.199219 347.800781 C 26.125 346.726562 25.078125 345.625 24.058594 344.5 C 23.035156 343.371094 22.042969 342.222656 21.078125 341.046875 C 20.117188 339.871094 19.179688 338.675781 18.277344 337.453125 C 17.371094 336.234375 16.496094 334.992188 15.652344 333.726562 C 14.804688 332.464844 13.992188 331.179688 13.210938 329.875 C 12.429688 328.574219 11.683594 327.25 10.964844 325.910156 C 10.25 324.570312 9.566406 323.214844 8.917969 321.839844 C 8.265625 320.464844 7.652344 319.074219 7.070312 317.671875 C 6.488281 316.269531 5.941406 314.851562 5.429688 313.417969 C 4.917969 311.988281 4.441406 310.546875 4 309.089844 C 3.558594 307.636719 3.152344 306.171875 2.78125 304.699219 C 2.414062 303.222656 2.082031 301.742188 1.785156 300.25 C 1.488281 298.761719 1.226562 297.261719 1.003906 295.761719 C 0.78125 294.257812 0.597656 292.75 0.445312 291.234375 C 0.296875 289.722656 0.1875 288.207031 0.113281 286.691406 C 0.0390625 285.171875 0 283.652344 0 282.132812 L 0 92.867188 C 0 91.347656 0.0390625 89.828125 0.113281 88.308594 C 0.1875 86.792969 0.296875 85.277344 0.445312 83.765625 C 0.597656 82.25 0.78125 80.742188 1.003906 79.238281 C 1.226562 77.738281 1.488281 76.238281 1.785156 74.75 C 2.082031 73.257812 2.414062 71.777344 2.78125 70.300781 C 3.152344 68.828125 3.558594 67.363281 4 65.910156 C 4.441406 64.453125 4.917969 63.011719 5.429688 61.582031 C 5.941406 60.148438 6.488281 58.730469 7.070312 57.328125 C 7.652344 55.921875 8.265625 54.535156 8.917969 53.160156 C 9.566406 51.785156 10.25 50.429688 10.964844 49.089844 C 11.683594 47.75 12.429688 46.425781 13.210938 45.125 C 13.992188 43.820312 14.804688 42.535156 15.652344 41.273438 C 16.496094 40.007812 17.371094 38.765625 18.277344 37.546875 C 19.179688 36.324219 20.117188 35.128906 21.078125 33.953125 C 22.042969 32.777344 23.035156 31.628906 24.058594 30.5 C 25.078125 29.375 26.125 28.273438 27.199219 27.199219 C 28.273438 26.125 29.375 25.078125 30.5 24.058594 C 31.628906 23.035156 32.777344 22.042969 33.953125 21.078125 C 35.128906 20.117188 36.324219 19.179688 37.546875 18.277344 C 38.765625 17.371094 40.007812 16.496094 41.273438 15.652344 C 42.535156 14.804688 43.820312 13.992188 45.125 13.210938 C 46.425781 12.429688 47.75 11.683594 49.089844 10.964844 C 50.429688 10.25 51.785156 9.566406 53.160156 8.917969 C 54.535156 8.265625 55.925781 7.652344 57.328125 7.070312 C 58.730469 6.488281 60.148438 5.941406 61.582031 5.429688 C 63.011719 4.917969 64.453125 4.441406 65.910156 4 C 67.363281 3.558594 68.828125 3.152344 70.300781 2.78125 C 71.777344 2.414062 73.257812 2.082031 74.75 1.785156 C 76.238281 1.488281 77.738281 1.226562 79.238281 1.003906 C 80.742188 0.78125 82.25 0.597656 83.765625 0.445312 C 85.277344 0.296875 86.792969 0.1875 88.308594 0.113281 C 89.828125 0.0390625 91.347656 0 92.867188 0 Z M 92.867188 0 " fill-opacity="1" fill-rule="nonzero"/><g clip-path="url(#cf366ad966)"><path fill="#5e17eb" d="M 336.570312 187.5 C 336.570312 203.722656 333.582031 219.054688 327.59375 233.507812 C 321.605469 247.957031 313.4375 260.601562 303.082031 271.441406 C 292.726562 282.277344 280.519531 290.953125 266.480469 297.449219 C 252.445312 303.949219 237.433594 307.445312 221.476562 307.925781 L 204.78125 307.925781 C 202.75 307.925781 200.902344 307.058594 199.570312 305.667969 C 198.238281 304.273438 197.417969 302.347656 197.417969 300.214844 C 197.417969 295.960938 200.714844 292.511719 204.78125 292.511719 L 221.46875 292.511719 C 235.28125 292.511719 248.289062 289.738281 260.488281 284.203125 C 272.6875 278.660156 283.3125 271.152344 292.363281 261.6875 C 301.417969 252.214844 308.59375 241.089844 313.886719 228.324219 C 319.183594 215.5625 321.832031 201.953125 321.832031 187.5 C 321.832031 173.050781 319.183594 159.441406 313.886719 146.675781 C 308.59375 133.910156 301.417969 122.796875 292.363281 113.316406 C 283.3125 103.839844 272.6875 96.332031 260.488281 90.796875 C 248.289062 85.253906 235.28125 82.492188 221.46875 82.492188 L 163.1875 82.492188 L 163.1875 243.863281 C 163.1875 252.695312 161.578125 261 158.355469 268.789062 C 155.132812 276.574219 150.757812 283.359375 145.234375 289.144531 C 139.707031 294.929688 133.222656 299.5 125.785156 302.871094 C 118.335938 306.246094 110.398438 307.933594 101.957031 307.933594 C 92.90625 307.933594 84.5 306.246094 76.75 302.871094 C 69 299.5 62.285156 294.929688 56.605469 289.144531 C 50.925781 283.359375 46.476562 276.574219 43.253906 268.789062 C 40.039062 261 38.425781 252.695312 38.425781 243.863281 C 38.425781 241.777344 39.121094 239.96875 40.496094 238.441406 C 41.875 236.917969 43.644531 236.148438 45.792969 236.148438 C 47.789062 236.148438 49.511719 236.917969 50.972656 238.441406 C 52.425781 239.96875 53.15625 241.777344 53.15625 243.863281 C 53.15625 250.609375 54.421875 256.90625 56.953125 262.773438 C 59.484375 268.628906 62.96875 273.730469 67.425781 278.066406 C 71.878906 282.40625 77.171875 285.851562 83.308594 288.421875 C 89.449219 290.988281 96.121094 292.351562 103.335938 292.519531 L 103.335938 74.78125 C 103.335938 72.695312 104.058594 70.886719 105.519531 69.367188 C 106.988281 67.84375 108.710938 67.078125 110.707031 67.078125 C 112.851562 67.078125 114.625 67.84375 116 69.367188 C 117.378906 70.894531 118.070312 72.703125 118.070312 74.78125 L 118.070312 289.617188 C 126.964844 286.085938 134.261719 280.226562 139.941406 272.035156 C 145.621094 263.847656 148.460938 254.449219 148.460938 243.855469 L 148.460938 74.78125 C 148.460938 72.695312 149.152344 70.886719 150.53125 69.367188 C 151.90625 67.84375 153.679688 67.078125 155.824219 67.078125 L 221.46875 67.078125 C 236.660156 67.242188 251.203125 70.449219 265.089844 76.707031 C 278.976562 82.972656 291.210938 91.484375 301.800781 102.238281 C 312.390625 113 320.832031 125.679688 327.121094 140.289062 C 333.421875 154.90625 336.570312 170.640625 336.570312 187.5 Z M 155.636719 67.078125 C 153.640625 67.078125 151.914062 67.800781 150.453125 69.246094 C 148.992188 70.691406 148.269531 72.535156 148.269531 74.789062 C 148.269531 75.441406 148.332031 76.066406 148.460938 76.664062 L 148.460938 74.789062 C 148.460938 72.703125 149.152344 70.894531 150.53125 69.375 C 151.90625 67.851562 153.679688 67.082031 155.824219 67.082031 L 155.636719 67.082031 Z M 155.636719 67.078125 " fill-opacity="1" fill-rule="nonzero"/></g><g clip-path="url(#dbbffcd0e5)"><path fill="#5e17eb" d="M 256.136719 147.460938 C 254.707031 140.097656 245.734375 139.972656 243.519531 146.855469 C 241.308594 139.972656 232.332031 140.097656 230.902344 147.460938 C 229.605469 154.140625 243.519531 164.679688 243.519531 164.679688 C 243.519531 164.679688 257.4375 154.140625 256.136719 147.460938 Z M 256.136719 147.460938 " fill-opacity="1" fill-rule="nonzero"/></g><g fill="#5e17eb" fill-opacity="1"><g transform="translate(185.663474, 190.043704)"><g><path d="M 2.3125 -19.5625 L 11.203125 -19.5625 C 13.328125 -19.5625 15.203125 -19.15625 16.828125 -18.34375 C 18.460938 -17.539062 19.734375 -16.398438 20.640625 -14.921875 C 21.546875 -13.453125 22 -11.738281 22 -9.78125 C 22 -7.820312 21.546875 -6.109375 20.640625 -4.640625 C 19.734375 -3.171875 18.460938 -2.03125 16.828125 -1.21875 C 15.203125 -0.40625 13.328125 0 11.203125 0 L 2.3125 0 Z M 10.984375 -3.71875 C 12.941406 -3.71875 14.503906 -4.257812 15.671875 -5.34375 C 16.835938 -6.4375 17.421875 -7.914062 17.421875 -9.78125 C 17.421875 -11.644531 16.835938 -13.117188 15.671875 -14.203125 C 14.503906 -15.296875 12.941406 -15.84375 10.984375 -15.84375 L 6.84375 -15.84375 L 6.84375 -3.71875 Z M 10.984375 -3.71875 "/></g></g></g><g fill="#5e17eb" fill-opacity="1"><g transform="translate(209.855396, 190.043704)"><g><path d="M 5.921875 0.328125 C 4.597656 0.328125 3.378906 0.0820312 2.265625 -0.40625 C 1.160156 -0.894531 0.253906 -1.597656 -0.453125 -2.515625 L 2.0625 -5.53125 C 3.125 -4.09375 4.335938 -3.375 5.703125 -3.375 C 7.546875 -3.375 8.46875 -4.457031 8.46875 -6.625 L 8.46875 -15.9375 L 1.59375 -15.9375 L 1.59375 -19.5625 L 12.96875 -19.5625 L 12.96875 -6.875 C 12.96875 -4.46875 12.367188 -2.664062 11.171875 -1.46875 C 9.984375 -0.269531 8.234375 0.328125 5.921875 0.328125 Z M 5.921875 0.328125 "/></g></g></g><g fill="#5e17eb" fill-opacity="1"><g transform="translate(226.085978, 190.043704)"><g/></g></g><g fill="#5e17eb" fill-opacity="1"><g transform="translate(235.109457, 190.043704)"><g><path d="M 20.125 0 L 20.09375 -11.734375 L 14.34375 -2.0625 L 12.296875 -2.0625 L 6.5625 -11.484375 L 6.5625 0 L 2.3125 0 L 2.3125 -19.5625 L 6.0625 -19.5625 L 13.390625 -7.40625 L 20.59375 -19.5625 L 24.3125 -19.5625 L 24.375 0 Z M 20.125 0 "/></g></g></g><g fill="#5e17eb" fill-opacity="1"><g transform="translate(262.904938, 190.043704)"><g><path d="M 10.796875 -19.5625 C 12.523438 -19.5625 14.023438 -19.269531 15.296875 -18.6875 C 16.578125 -18.113281 17.5625 -17.296875 18.25 -16.234375 C 18.9375 -15.171875 19.28125 -13.914062 19.28125 -12.46875 C 19.28125 -11.03125 18.9375 -9.773438 18.25 -8.703125 C 17.5625 -7.628906 16.578125 -6.804688 15.296875 -6.234375 C 14.023438 -5.671875 12.523438 -5.390625 10.796875 -5.390625 L 6.84375 -5.390625 L 6.84375 0 L 2.3125 0 L 2.3125 -19.5625 Z M 10.53125 -9.078125 C 11.894531 -9.078125 12.929688 -9.367188 13.640625 -9.953125 C 14.347656 -10.546875 14.703125 -11.382812 14.703125 -12.46875 C 14.703125 -13.5625 14.347656 -14.398438 13.640625 -14.984375 C 12.929688 -15.578125 11.894531 -15.875 10.53125 -15.875 L 6.84375 -15.875 L 6.84375 -9.078125 Z M 10.53125 -9.078125 "/></g></g></g><g fill="#5e17eb" fill-opacity="1"><g transform="translate(284.471013, 190.043704)"><g><path d="M 2.3125 -19.5625 L 6.84375 -19.5625 L 6.84375 -3.6875 L 16.65625 -3.6875 L 16.65625 0 L 2.3125 0 Z M 2.3125 -19.5625 "/></g></g></g><g fill="#5e17eb" fill-opacity="1"><g transform="translate(187.536687, 211.623692)"><g><path d="M 11.28125 -11.296875 L 11.28125 0 L 10.296875 0 L 3.03125 -9.171875 L 3.03125 0 L 1.84375 0 L 1.84375 -11.296875 L 2.828125 -11.296875 L 10.109375 -2.125 L 10.109375 -11.296875 Z M 11.28125 -11.296875 "/></g></g></g><g fill="#5e17eb" fill-opacity="1"><g transform="translate(201.294362, 211.623692)"><g><path d="M 9.828125 -1.03125 L 9.828125 0 L 1.84375 0 L 1.84375 -11.296875 L 9.59375 -11.296875 L 9.59375 -10.265625 L 3.03125 -10.265625 L 3.03125 -6.25 L 8.875 -6.25 L 8.875 -5.234375 L 3.03125 -5.234375 L 3.03125 -1.03125 Z M 9.828125 -1.03125 "/></g></g></g><g fill="#5e17eb" fill-opacity="1"><g transform="translate(212.729616, 211.623692)"><g><path d="M 11.234375 -11.296875 L 6.234375 0 L 5.046875 0 L 0.046875 -11.296875 L 1.34375 -11.296875 L 5.671875 -1.484375 L 10.015625 -11.296875 Z M 11.234375 -11.296875 "/></g></g></g><g fill="#5e17eb" fill-opacity="1"><g transform="translate(224.632575, 211.623692)"><g><path d="M 9.828125 -1.03125 L 9.828125 0 L 1.84375 0 L 1.84375 -11.296875 L 9.59375 -11.296875 L 9.59375 -10.265625 L 3.03125 -10.265625 L 3.03125 -6.25 L 8.875 -6.25 L 8.875 -5.234375 L 3.03125 -5.234375 L 3.03125 -1.03125 Z M 9.828125 -1.03125 "/></g></g></g><g fill="#5e17eb" fill-opacity="1"><g transform="translate(236.067829, 211.623692)"><g><path d="M 9.5625 0 L 6.96875 -3.625 C 6.675781 -3.59375 6.375 -3.578125 6.0625 -3.578125 L 3.03125 -3.578125 L 3.03125 0 L 1.84375 0 L 1.84375 -11.296875 L 6.0625 -11.296875 C 7.507812 -11.296875 8.640625 -10.953125 9.453125 -10.265625 C 10.273438 -9.578125 10.6875 -8.628906 10.6875 -7.421875 C 10.6875 -6.535156 10.460938 -5.789062 10.015625 -5.1875 C 9.566406 -4.582031 8.929688 -4.144531 8.109375 -3.875 L 10.859375 0 Z M 6.03125 -4.59375 C 7.15625 -4.59375 8.007812 -4.835938 8.59375 -5.328125 C 9.1875 -5.828125 9.484375 -6.523438 9.484375 -7.421875 C 9.484375 -8.335938 9.1875 -9.039062 8.59375 -9.53125 C 8.007812 -10.019531 7.15625 -10.265625 6.03125 -10.265625 L 3.03125 -10.265625 L 3.03125 -4.59375 Z M 6.03125 -4.59375 "/></g></g></g><g fill="#5e17eb" fill-opacity="1"><g transform="translate(248.373989, 211.623692)"><g/></g></g><g fill="#5e17eb" fill-opacity="1"><g transform="translate(253.245195, 211.623692)"><g><path d="M 4.953125 0.09375 C 4.117188 0.09375 3.316406 -0.0351562 2.546875 -0.296875 C 1.773438 -0.566406 1.179688 -0.925781 0.765625 -1.375 L 1.234375 -2.296875 C 1.640625 -1.878906 2.179688 -1.546875 2.859375 -1.296875 C 3.535156 -1.046875 4.234375 -0.921875 4.953125 -0.921875 C 5.960938 -0.921875 6.71875 -1.101562 7.21875 -1.46875 C 7.726562 -1.84375 7.984375 -2.328125 7.984375 -2.921875 C 7.984375 -3.367188 7.847656 -3.726562 7.578125 -4 C 7.304688 -4.269531 6.96875 -4.476562 6.5625 -4.625 C 6.164062 -4.769531 5.613281 -4.925781 4.90625 -5.09375 C 4.050781 -5.3125 3.367188 -5.519531 2.859375 -5.71875 C 2.359375 -5.914062 1.925781 -6.21875 1.5625 -6.625 C 1.207031 -7.039062 1.03125 -7.597656 1.03125 -8.296875 C 1.03125 -8.867188 1.179688 -9.390625 1.484375 -9.859375 C 1.785156 -10.328125 2.25 -10.695312 2.875 -10.96875 C 3.5 -11.25 4.273438 -11.390625 5.203125 -11.390625 C 5.847656 -11.390625 6.476562 -11.300781 7.09375 -11.125 C 7.707031 -10.945312 8.242188 -10.703125 8.703125 -10.390625 L 8.296875 -9.4375 C 7.828125 -9.75 7.320312 -9.984375 6.78125 -10.140625 C 6.238281 -10.296875 5.710938 -10.375 5.203125 -10.375 C 4.210938 -10.375 3.46875 -10.179688 2.96875 -9.796875 C 2.46875 -9.421875 2.21875 -8.929688 2.21875 -8.328125 C 2.21875 -7.878906 2.351562 -7.515625 2.625 -7.234375 C 2.894531 -6.960938 3.238281 -6.753906 3.65625 -6.609375 C 4.070312 -6.460938 4.628906 -6.304688 5.328125 -6.140625 C 6.148438 -5.929688 6.816406 -5.726562 7.328125 -5.53125 C 7.847656 -5.332031 8.285156 -5.03125 8.640625 -4.625 C 8.992188 -4.21875 9.171875 -3.671875 9.171875 -2.984375 C 9.171875 -2.410156 9.015625 -1.890625 8.703125 -1.421875 C 8.398438 -0.953125 7.929688 -0.582031 7.296875 -0.3125 C 6.660156 -0.0390625 5.878906 0.09375 4.953125 0.09375 Z M 4.953125 0.09375 "/></g></g></g><g fill="#5e17eb" fill-opacity="1"><g transform="translate(263.809536, 211.623692)"><g><path d="M 4.03125 -10.265625 L 0.0625 -10.265625 L 0.0625 -11.296875 L 9.203125 -11.296875 L 9.203125 -10.265625 L 5.234375 -10.265625 L 5.234375 0 L 4.03125 0 Z M 4.03125 -10.265625 "/></g></g></g><g fill="#5e17eb" fill-opacity="1"><g transform="translate(273.712638, 211.623692)"><g><path d="M 6.78125 0.09375 C 5.65625 0.09375 4.640625 -0.15625 3.734375 -0.65625 C 2.828125 -1.15625 2.117188 -1.835938 1.609375 -2.703125 C 1.097656 -3.578125 0.84375 -4.5625 0.84375 -5.65625 C 0.84375 -6.738281 1.097656 -7.710938 1.609375 -8.578125 C 2.117188 -9.453125 2.828125 -10.140625 3.734375 -10.640625 C 4.640625 -11.140625 5.65625 -11.390625 6.78125 -11.390625 C 7.894531 -11.390625 8.898438 -11.140625 9.796875 -10.640625 C 10.703125 -10.148438 11.410156 -9.46875 11.921875 -8.59375 C 12.441406 -7.71875 12.703125 -6.738281 12.703125 -5.65625 C 12.703125 -4.5625 12.441406 -3.578125 11.921875 -2.703125 C 11.410156 -1.828125 10.703125 -1.140625 9.796875 -0.640625 C 8.898438 -0.148438 7.894531 0.09375 6.78125 0.09375 Z M 6.78125 -0.96875 C 7.675781 -0.96875 8.484375 -1.164062 9.203125 -1.5625 C 9.921875 -1.96875 10.484375 -2.53125 10.890625 -3.25 C 11.304688 -3.96875 11.515625 -4.769531 11.515625 -5.65625 C 11.515625 -6.53125 11.304688 -7.328125 10.890625 -8.046875 C 10.484375 -8.765625 9.921875 -9.320312 9.203125 -9.71875 C 8.484375 -10.125 7.675781 -10.328125 6.78125 -10.328125 C 5.882812 -10.328125 5.070312 -10.125 4.34375 -9.71875 C 3.625 -9.320312 3.054688 -8.765625 2.640625 -8.046875 C 2.222656 -7.328125 2.015625 -6.53125 2.015625 -5.65625 C 2.015625 -4.769531 2.222656 -3.96875 2.640625 -3.25 C 3.054688 -2.53125 3.625 -1.96875 4.34375 -1.5625 C 5.070312 -1.164062 5.882812 -0.96875 6.78125 -0.96875 Z M 6.78125 -0.96875 "/></g></g></g><g fill="#5e17eb" fill-opacity="1"><g transform="translate(287.889635, 211.623692)"><g><path d="M 6.0625 -11.296875 C 7.507812 -11.296875 8.640625 -10.953125 9.453125 -10.265625 C 10.273438 -9.578125 10.6875 -8.628906 10.6875 -7.421875 C 10.6875 -6.210938 10.273438 -5.265625 9.453125 -4.578125 C 8.640625 -3.898438 7.507812 -3.5625 6.0625 -3.5625 L 3.03125 -3.5625 L 3.03125 0 L 1.84375 0 L 1.84375 -11.296875 Z M 6.03125 -4.609375 C 7.15625 -4.609375 8.007812 -4.851562 8.59375 -5.34375 C 9.1875 -5.832031 9.484375 -6.523438 9.484375 -7.421875 C 9.484375 -8.335938 9.1875 -9.039062 8.59375 -9.53125 C 8.007812 -10.019531 7.15625 -10.265625 6.03125 -10.265625 L 3.03125 -10.265625 L 3.03125 -4.609375 Z M 6.03125 -4.609375 "/></g></g></g><g fill="#5e17eb" fill-opacity="1"><g transform="translate(199.108951, 230.37369)"><g/></g></g><g fill="#5e17eb" fill-opacity="1"><g transform="translate(203.986881, 230.37369)"><g><path d="M 1.84375 -11.296875 L 6.4375 -11.296875 C 7.632812 -11.296875 8.6875 -11.054688 9.59375 -10.578125 C 10.507812 -10.097656 11.222656 -9.429688 11.734375 -8.578125 C 12.242188 -7.722656 12.5 -6.75 12.5 -5.65625 C 12.5 -4.550781 12.242188 -3.570312 11.734375 -2.71875 C 11.222656 -1.863281 10.507812 -1.195312 9.59375 -0.71875 C 8.6875 -0.238281 7.632812 0 6.4375 0 L 1.84375 0 Z M 6.375 -1.03125 C 7.363281 -1.03125 8.226562 -1.226562 8.96875 -1.625 C 9.71875 -2.019531 10.296875 -2.5625 10.703125 -3.25 C 11.109375 -3.945312 11.3125 -4.75 11.3125 -5.65625 C 11.3125 -6.550781 11.109375 -7.347656 10.703125 -8.046875 C 10.296875 -8.742188 9.71875 -9.285156 8.96875 -9.671875 C 8.226562 -10.066406 7.363281 -10.265625 6.375 -10.265625 L 3.03125 -10.265625 L 3.03125 -1.03125 Z M 6.375 -1.03125 "/></g></g></g><g fill="#5e17eb" fill-opacity="1"><g transform="translate(217.954212, 230.37369)"><g><path d="M 8.921875 -3.015625 L 2.625 -3.015625 L 1.28125 0 L 0.03125 0 L 5.203125 -11.296875 L 6.375 -11.296875 L 11.546875 0 L 10.28125 0 Z M 8.484375 -3.984375 L 5.78125 -10.0625 L 3.0625 -3.984375 Z M 8.484375 -3.984375 "/></g></g></g><g fill="#5e17eb" fill-opacity="1"><g transform="translate(230.163601, 230.37369)"><g><path d="M 11.28125 -11.296875 L 11.28125 0 L 10.296875 0 L 3.03125 -9.171875 L 3.03125 0 L 1.84375 0 L 1.84375 -11.296875 L 2.828125 -11.296875 L 10.109375 -2.125 L 10.109375 -11.296875 Z M 11.28125 -11.296875 "/></g></g></g><g fill="#5e17eb" fill-opacity="1"><g transform="translate(243.921276, 230.37369)"><g><path d="M 6.75 0.09375 C 5.625 0.09375 4.613281 -0.148438 3.71875 -0.640625 C 2.820312 -1.140625 2.117188 -1.828125 1.609375 -2.703125 C 1.097656 -3.578125 0.84375 -4.5625 0.84375 -5.65625 C 0.84375 -6.738281 1.097656 -7.71875 1.609375 -8.59375 C 2.117188 -9.46875 2.820312 -10.148438 3.71875 -10.640625 C 4.625 -11.140625 5.640625 -11.390625 6.765625 -11.390625 C 7.597656 -11.390625 8.367188 -11.25 9.078125 -10.96875 C 9.796875 -10.695312 10.398438 -10.289062 10.890625 -9.75 L 10.140625 -8.984375 C 9.253906 -9.878906 8.140625 -10.328125 6.796875 -10.328125 C 5.898438 -10.328125 5.085938 -10.125 4.359375 -9.71875 C 3.628906 -9.3125 3.054688 -8.75 2.640625 -8.03125 C 2.222656 -7.320312 2.015625 -6.53125 2.015625 -5.65625 C 2.015625 -4.769531 2.222656 -3.96875 2.640625 -3.25 C 3.054688 -2.539062 3.628906 -1.984375 4.359375 -1.578125 C 5.085938 -1.171875 5.898438 -0.96875 6.796875 -0.96875 C 8.148438 -0.96875 9.265625 -1.421875 10.140625 -2.328125 L 10.890625 -1.5625 C 10.398438 -1.03125 9.796875 -0.617188 9.078125 -0.328125 C 8.359375 -0.046875 7.582031 0.09375 6.75 0.09375 Z M 6.75 0.09375 "/></g></g></g><g fill="#5e17eb" fill-opacity="1"><g transform="translate(256.162924, 230.37369)"><g><path d="M 1.84375 -11.296875 L 3.03125 -11.296875 L 3.03125 0 L 1.84375 0 Z M 1.84375 -11.296875 "/></g></g></g><g fill="#5e17eb" fill-opacity="1"><g transform="translate(261.679237, 230.37369)"><g><path d="M 11.28125 -11.296875 L 11.28125 0 L 10.296875 0 L 3.03125 -9.171875 L 3.03125 0 L 1.84375 0 L 1.84375 -11.296875 L 2.828125 -11.296875 L 10.109375 -2.125 L 10.109375 -11.296875 Z M 11.28125 -11.296875 "/></g></g></g><g fill="#5e17eb" fill-opacity="1"><g transform="translate(275.436912, 230.37369)"><g><path d="M 9.796875 -5.65625 L 10.9375 -5.65625 L 10.9375 -1.34375 C 10.414062 -0.875 9.789062 -0.515625 9.0625 -0.265625 C 8.34375 -0.0234375 7.585938 0.09375 6.796875 0.09375 C 5.660156 0.09375 4.640625 -0.148438 3.734375 -0.640625 C 2.835938 -1.140625 2.128906 -1.828125 1.609375 -2.703125 C 1.097656 -3.578125 0.84375 -4.5625 0.84375 -5.65625 C 0.84375 -6.738281 1.097656 -7.71875 1.609375 -8.59375 C 2.128906 -9.46875 2.835938 -10.148438 3.734375 -10.640625 C 4.640625 -11.140625 5.664062 -11.390625 6.8125 -11.390625 C 7.675781 -11.390625 8.46875 -11.253906 9.1875 -10.984375 C 9.90625 -10.710938 10.515625 -10.304688 11.015625 -9.765625 L 10.265625 -9 C 9.367188 -9.882812 8.234375 -10.328125 6.859375 -10.328125 C 5.941406 -10.328125 5.113281 -10.125 4.375 -9.71875 C 3.644531 -9.320312 3.066406 -8.765625 2.640625 -8.046875 C 2.222656 -7.328125 2.015625 -6.53125 2.015625 -5.65625 C 2.015625 -4.769531 2.222656 -3.96875 2.640625 -3.25 C 3.066406 -2.539062 3.644531 -1.984375 4.375 -1.578125 C 5.101562 -1.171875 5.925781 -0.96875 6.84375 -0.96875 C 8.007812 -0.96875 8.992188 -1.257812 9.796875 -1.84375 Z M 9.796875 -5.65625 "/></g></g></g></svg>