<svg xmlns="http://www.w3.org/2000/svg" xmlns:xlink="http://www.w3.org/1999/xlink" width="500" zoomAndPan="magnify" viewBox="0 0 375 374.999991" height="500" preserveAspectRatio="xMidYMid meet" version="1.0"><defs><clipPath id="6d102ecd5b"><path d="M 0.664062 0.664062 L 374.164062 0.664062 L 374.164062 374.164062 L 0.664062 374.164062 Z M 0.664062 0.664062 " clip-rule="nonzero"/></clipPath><clipPath id="0a44bb3f3f"><path d="M 221 96 L 374.164062 96 L 374.164062 254 L 221 254 Z M 221 96 " clip-rule="nonzero"/></clipPath><clipPath id="9928d35027"><path d="M 64 141 L 374.164062 141 L 374.164062 312 L 64 312 Z M 64 141 " clip-rule="nonzero"/></clipPath></defs><rect x="-37.5" width="450" fill="#ffffff" y="-37.499999" height="449.999989" fill-opacity="1"/><rect x="-37.5" width="450" fill="#ffffff" y="-37.499999" height="449.999989" fill-opacity="1"/><g clip-path="url(#6d102ecd5b)"><path fill="#004778" d="M 332.378906 0.664062 L 43.929688 0.664062 C 20.035156 0.664062 0.664062 20.035156 0.664062 43.933594 L 0.664062 332.394531 C 0.664062 356.289062 20.035156 375.660156 43.929688 375.660156 L 332.378906 375.660156 C 356.277344 375.660156 375.648438 356.289062 375.648438 332.394531 L 375.648438 43.933594 C 375.648438 20.035156 356.277344 0.664062 332.378906 0.664062 Z M 332.378906 0.664062 " fill-opacity="1" fill-rule="nonzero"/></g><path fill="#ffffff" d="M 132.199219 349.699219 C 110.277344 349.699219 92.105469 331.816406 92.105469 309.605469 C 92.105469 287.683594 109.988281 269.796875 131.910156 269.796875 C 154.121094 269.796875 172.003906 287.683594 172.003906 309.605469 C 172.003906 331.816406 154.121094 349.699219 132.199219 349.699219 Z M 132.199219 349.699219 " fill-opacity="1" fill-rule="nonzero"/><g clip-path="url(#0a44bb3f3f)"><path fill="#ffffff" d="M 375.648438 96.433594 L 234.886719 96.433594 C 227.386719 96.433594 221.328125 102.492188 221.328125 109.988281 L 221.328125 239.507812 C 221.328125 247.007812 227.386719 253.066406 234.886719 253.066406 L 375.648438 253.066406 Z M 375.648438 96.433594 " fill-opacity="1" fill-rule="evenodd"/></g><g clip-path="url(#9928d35027)"><path fill="#ffffff" d="M 375.648438 270.085938 L 216.136719 270.085938 C 207.484375 270.085938 200.5625 263.164062 200.5625 254.511719 L 200.5625 149.796875 C 200.5625 144.894531 196.523438 141.144531 191.621094 141.433594 C 186.394531 141.730469 181.246094 142.109375 176.132812 142.480469 C 171.371094 142.828125 166.640625 143.175781 161.910156 143.453125 C 156.257812 143.898438 150.527344 144.269531 144.761719 144.640625 C 139.347656 144.988281 133.898438 145.339844 128.449219 145.761719 C 118.929688 146.625 109.699219 147.203125 100.46875 147.777344 C 97.585938 147.777344 95.277344 149.222656 93.835938 151.816406 C 92.679688 153.546875 91.816406 155.277344 91.238281 157.011719 C 89.507812 161.480469 87.851562 166.023438 86.191406 170.566406 C 84.53125 175.109375 82.875 179.652344 81.144531 184.125 C 76.527344 196.242188 71.625 208.355469 66.722656 220.472656 C 65.277344 223.933594 64.703125 227.972656 64.703125 232.011719 C 64.988281 239.222656 64.988281 246.144531 64.988281 253.355469 L 64.988281 292.296875 C 64.988281 294.894531 64.988281 297.777344 65.277344 300.375 C 65.566406 304.699219 67.296875 308.164062 71.914062 309.316406 C 72.921875 309.460938 73.859375 309.605469 74.796875 309.75 C 75.734375 309.894531 76.671875 310.039062 77.683594 310.183594 C 79.699219 310.46875 81.433594 309.027344 81.71875 307.007812 C 82.875 294.605469 86.625 283.933594 96.144531 274.988281 C 105.660156 265.183594 117.488281 260.277344 131.046875 259.703125 C 142.582031 259.125 153.542969 262.296875 163.0625 269.222656 C 176.042969 278.738281 181.8125 292.007812 183.253906 307.585938 C 183.253906 309.605469 184.695312 311.046875 186.714844 311.046875 L 375.648438 311.046875 Z M 157.003906 162.492188 C 159.023438 162.492188 160.753906 164.222656 160.753906 166.242188 C 160.660156 171.550781 160.59375 176.859375 160.53125 182.179688 C 160.402344 192.757812 160.273438 203.375 159.890625 214.125 C 159.890625 215.855469 158.449219 217.296875 156.71875 217.585938 C 154.84375 217.730469 153.039062 217.949219 151.238281 218.164062 C 149.433594 218.378906 147.632812 218.597656 145.757812 218.742188 C 135.375 219.894531 125.285156 221.046875 115.195312 222.199219 L 115.179688 222.203125 C 106.238281 223.355469 97.296875 224.511719 88.355469 225.375 C 83.449219 225.953125 79.414062 221.335938 80.855469 216.722656 C 81 216.289062 81.144531 215.929688 81.289062 215.566406 C 81.433594 215.207031 81.574219 214.847656 81.71875 214.414062 C 84.027344 208.210938 86.335938 202.082031 88.644531 195.953125 C 90.949219 189.824219 93.257812 183.691406 95.566406 177.492188 C 96.429688 175.472656 97.296875 173.164062 97.875 170.855469 C 99.027344 167.394531 101.335938 165.953125 104.796875 165.664062 C 107.824219 165.519531 110.925781 165.304688 114.027344 165.085938 C 117.128906 164.871094 120.226562 164.652344 123.257812 164.511719 C 128.738281 164.222656 134.289062 163.859375 139.84375 163.5 C 145.394531 163.140625 150.949219 162.777344 156.429688 162.492188 Z M 157.003906 162.492188 " fill-opacity="1" fill-rule="evenodd"/></g></svg>